<svg width="28" height="28" viewBox="0 0 28 28" fill="none" xmlns="http://www.w3.org/2000/svg">
<path d="M21 14H19.0272C18.9189 14 18.8128 14.0301 18.7207 14.087C18.6286 14.1438 18.5542 14.2252 18.5057 14.322L16.8548 17.6225C16.8063 17.7193 16.7319 17.8006 16.6398 17.8575C16.5477 17.9143 16.4416 17.9445 16.3333 17.9445C16.2251 17.9445 16.119 17.9143 16.0269 17.8575C15.9348 17.8006 15.8603 17.7193 15.8118 17.6225L12.1683 10.3378C12.1206 10.2424 12.0475 10.1619 11.9572 10.105C11.8668 10.0482 11.7626 10.0173 11.6559 10.0156C11.5491 10.0139 11.444 10.0416 11.3519 10.0955C11.2598 10.1494 11.1843 10.2276 11.1335 10.3215L9.31467 13.6932C9.26456 13.7857 9.19045 13.863 9.10012 13.917C9.00978 13.971 8.90657 13.9997 8.80133 14H3.5" stroke="#002FA7" stroke-width="2" stroke-linecap="round" stroke-linejoin="round"/>
<path d="M4.11011 10.5C5.55327 6.42483 9.43011 3.5 13.9999 3.5C16.7847 3.5 19.4554 4.60625 21.4246 6.57538C23.3937 8.54451 24.4999 11.2152 24.4999 14C24.4999 16.7848 23.3937 19.4555 21.4246 21.4246C19.4554 23.3938 16.7847 24.5 13.9999 24.5C9.43011 24.5 5.55327 21.5752 4.11011 17.5" stroke="#002FA7" stroke-width="2" stroke-linecap="round" stroke-linejoin="round"/>
</svg>
